<?xml version="1.0" encoding="utf-8"?>
<!-- Generator: Adobe Illustrator 19.1.0, SVG Export Plug-In . SVG Version: 6.00 Build 0)  -->
<svg version="1.1" id="Layer_2" xmlns="http://www.w3.org/2000/svg" xmlns:xlink="http://www.w3.org/1999/xlink" x="0px" y="0px"
	 viewBox="552 158.5 1903.5 484.5" enable-background="new 552 158.5 1903.5 484.5" xml:space="preserve">
<circle fill="none" stroke="#999999" stroke-width="1.4024" stroke-miterlimit="10" cx="2356.3" cy="402.9" r="93.3"/>
<path fill="none" stroke="#1C1F2A" stroke-width="0.5" stroke-miterlimit="10" d="M2369.5,438.2h-55.4c-16,0-29.1-13-29.1-29.1
	c0-13.9,9.7-25.7,23.2-28.5c2.8-14.8,16-25.8,31-25.8c12,0,23,6.9,28.3,17.7c6.3,0.3,11.8,3.4,15.3,8.6c2.9,4.5,3.8,9.9,2.5,15.1
	 M2382.9,397.7l-0.7-0.6l0.3-0.9c1.4-4.6,0.7-9.6-2-13.6c-3.1-4.6-8.1-7.3-13.8-7.3h-0.9l-0.4-0.8c-4.7-10.2-15-16.8-26.2-16.8
	c-14.1,0-26.3,10.5-28.5,24.4l-0.2,1l-1,0.2c-12.7,2.1-21.9,13-21.9,25.9c0,14.5,11.8,26.3,26.3,26.3h55.4"/>
<path fill="none" stroke="#1C1F2A" stroke-width="0.5" stroke-miterlimit="10" d="M2382.8,381.1c3.1-2,6.8-3.1,10.7-3.1
	c9.5,0,17.8,6.9,19.5,16.2c8.5,1.7,14.6,9.2,14.6,17.9c0,10.1-8.2,18.3-18.3,18.3h-18"/>
<circle fill="none" stroke="#999999" stroke-width="1.4024" stroke-miterlimit="10" cx="1505.3" cy="401.1" r="233.4"/>
<path fill="none" stroke="#1C1F2A" stroke-width="1.2512" stroke-miterlimit="10" d="M1495.6,486.3h-96c-40.1,0-72.8-32.6-72.8-72.8
	c0-34.8,24.3-64.4,58.1-71.3c7-36.9,39.9-64.5,77.7-64.5c30,0,57.6,17.3,70.9,44.2c15.8,0.7,29.6,8.4,38.2,21.4
	c7.4,11.2,9,25.8,5.7,38.7 M1570.7,381.3c3.5-11.5,1.7-23.9-4.9-34.1c-7.6-11.6-20.2-18.3-34.6-18.3h-2.2l-0.9-2
	c-11.8-25.6-37.5-42.1-65.5-42.1c-35.2,0-65.8,26.3-71.2,61l-0.4,2.5l-2.5,0.4c-31.7,5.3-54.7,32.6-54.7,64.9
	c0,36.3,29.5,65.8,65.8,65.8h96"/>
<path fill="none" stroke="#1C1F2A" stroke-width="1.2512" stroke-miterlimit="10" d="M1571.6,343.3c7.9-5,17.1-7.9,26.7-7.9
	c23.8,0,44.5,17.4,48.9,40.6c21.3,4.3,36.6,22.9,36.6,44.9c0,25.3-20.6,45.8-45.8,45.8h-17.4"/>
<g>
	<path fill="none" stroke="#00A9E0" stroke-width="2.5023" stroke-miterlimit="10" d="M1550.8,429.2c0,4.7-3.9,8.6-8.6,8.6h-38.6
		c-4.7,0-8.6-3.9-8.6-8.6v-38.6c0-4.7,3.9-8.6,8.6-8.6h38.6c4.7,0,8.6,3.9,8.6,8.6V429.2z"/>
	<line fill="none" stroke="#00A9E0" stroke-width="2.5023" stroke-miterlimit="10" x1="1495" y1="394.3" x2="1550.8" y2="394.3"/>
	<path fill="none" stroke="#00A9E0" stroke-width="2.5023" stroke-miterlimit="10" d="M1619.4,429.2c0,4.7-3.9,8.6-8.6,8.6h-38.6
		c-4.7,0-8.6-3.9-8.6-8.6v-38.6c0-4.7,3.9-8.6,8.6-8.6h38.6c4.7,0,8.6,3.9,8.6,8.6V429.2z"/>
	<line fill="none" stroke="#00A9E0" stroke-width="2.5023" stroke-miterlimit="10" x1="1563.6" y1="394.3" x2="1619.4" y2="394.3"/>
	<path fill="none" stroke="#00A9E0" stroke-width="2.5023" stroke-miterlimit="10" d="M1550.8,497.8c0,4.7-3.9,8.6-8.6,8.6h-38.6
		c-4.7,0-8.6-3.9-8.6-8.6v-38.6c0-4.7,3.9-8.6,8.6-8.6h38.6c4.7,0,8.6,3.9,8.6,8.6V497.8z"/>
	<line fill="none" stroke="#00A9E0" stroke-width="2.5023" stroke-miterlimit="10" x1="1495" y1="462.9" x2="1550.8" y2="462.9"/>
	<path fill="none" stroke="#00A9E0" stroke-width="2.5023" stroke-miterlimit="10" d="M1619.4,497.8c0,4.7-3.9,8.6-8.6,8.6h-38.6
		c-4.7,0-8.6-3.9-8.6-8.6v-38.6c0-4.7,3.9-8.6,8.6-8.6h38.6c4.7,0,8.6,3.9,8.6,8.6V497.8z"/>
	<line fill="none" stroke="#00A9E0" stroke-width="2.5023" stroke-miterlimit="10" x1="1563.6" y1="462.9" x2="1619.4" y2="462.9"/>
</g>
<circle fill="none" stroke="#999999" stroke-miterlimit="10" cx="651.7" cy="402.9" r="94"/>
<path fill="none" stroke="#1C1F2A" stroke-width="0.6278" stroke-miterlimit="10" d="M664.1,435.2h-72.8v-9.4
	c0-5.6,3.6-10.7,8.9-12.6l16-5.7v-6.4c-5.8-4.5-9.3-11.9-9.3-20.1c0-13.2,9.2-24,20.4-24s20.4,10.8,20.4,24c0,7.7-3.1,14.9-8.4,19.4
	v7.1l16,5.7c5.3,1.9,8.9,6.9,8.9,12.6v9.4H664.1z M593.2,433.3h69v-7.5c0-4.8-3.1-9.2-7.6-10.8l-17.2-6.1v-9.4l0.3-0.3
	c5.1-4.1,8.1-11,8.1-18.2c0-12.2-8.3-22.1-18.6-22.1s-18.6,9.9-18.6,22.1c0,7.7,3.3,14.8,8.9,18.8l0.4,0.3v8.6l-17.2,6.1
	c-4.6,1.6-7.6,6-7.6,10.8v7.7H593.2z"/>
<path fill="none" stroke="#1C1F2A" stroke-width="0.6278" stroke-miterlimit="10" d="M608.9,377.9c1.9,0.6,3.8,0.8,6,0.8
	c5.6,0,18.7-2.7,22.2-6.4c0,0,4.5,6.1,8.7,7.4"/>
<polyline fill="none" stroke="#1C1F2A" stroke-width="0.6278" stroke-miterlimit="10" points="637.4,399.5 627.8,416.4 618,400.2 
	"/>
<polyline fill="none" stroke="#1C1F2A" stroke-width="0.6278" stroke-miterlimit="10" points="618,408.8 626.1,427 627.7,417.8 
	629.4,427 637.4,408.8 "/>
<g>
	<path fill="#F7F7F7" stroke="#00A9E0" stroke-width="0.6278" stroke-miterlimit="10" d="M647.4,440.6v-34.1c0-1.2,1-2.3,2.3-2.3
		h50.5c1.2,0,2.3,1,2.3,2.3v34.1"/>
	<path fill="#F7F7F7" stroke="#00A9E0" stroke-width="0.6278" stroke-miterlimit="10" d="M647.7,440.6v-34.1c0-1.1,0.9-2,2-2h50.5
		c1.1,0,2,0.9,2,2v34.1"/>
	<path fill="#F7F7F7" stroke="#00A9E0" stroke-width="0.6278" stroke-miterlimit="10" d="M647.8,440.6v-34.1c0-1,0.8-1.8,1.8-1.8
		h50.5c1,0,1.8,0.8,1.8,1.8v34.1"/>
	<g>
		<g>
			<g>
				<path fill="#F7F7F7" d="M639.5,442.5L639.5,442.5v0.1l0,0c1.4,1.8,2.4,1.5,2.7,1.5h32.7H703h5.2c0.5-0.1,1.2-0.3,2.2-1.5l0,0
					l0,0v-0.1"/>
				<path fill="none" stroke="#00A9E0" stroke-width="0.6278" stroke-miterlimit="10" d="M639.5,442.5L639.5,442.5v0.1l0,0
					c1.4,1.8,2.4,1.5,2.7,1.5h32.7H703h5.2c0.5-0.1,1.2-0.3,2.2-1.5l0,0l0,0v-0.1"/>
			</g>
			<defs>
				<filter id="Adobe_OpacityMaskFilter" filterUnits="userSpaceOnUse" x="639.2" y="442.5" width="71.5" height="1.9">
					<feColorMatrix  type="matrix" values="1 0 0 0 0  0 1 0 0 0  0 0 1 0 0  0 0 0 1 0"/>
				</filter>
			</defs>
			<mask maskUnits="userSpaceOnUse" x="639.2" y="442.5" width="71.5" height="1.9" id="SVGID_1_">
				<g filter="url(#Adobe_OpacityMaskFilter)">
					
						<image overflow="visible" enable-background="new    " width="77" height="8" xlink:href="EABE793F57A2F6BC.jpg"  transform="matrix(1 0 0 1 636.5566 439.4466)">
					</image>
				</g>
			</mask>
			<g opacity="0.49" mask="url(#SVGID_1_)">
				<path d="M639.5,442.5L639.5,442.5v0.1l0,0c1.4,1.8,2.4,1.5,2.7,1.5h32.7H703h5.2c0.5-0.1,1.2-0.3,2.2-1.5l0,0l0,0v-0.1"/>
				<path fill="none" stroke="#000000" stroke-width="0.6278" stroke-miterlimit="10" d="M639.5,442.5L639.5,442.5v0.1l0,0
					c1.4,1.8,2.4,1.5,2.7,1.5h32.7H703h5.2c0.5-0.1,1.2-0.3,2.2-1.5l0,0l0,0v-0.1"/>
			</g>
		</g>
		<path fill="#F7F7F7" stroke="#00A9E0" stroke-width="0.6278" stroke-miterlimit="10" d="M639.5,440.6v2c0.3,0,0.5,0.1,0.8,0.1
			h69.2c0.3,0,0.6,0,0.8-0.1v-2H639.5z"/>
		<path fill="#F7F7F7" stroke="#00A9E0" stroke-width="0.6278" stroke-miterlimit="10" d="M669,440.6c0,0.1,0,0.1,0,0.2
			c0,0.5,0.4,0.9,0.9,0.9H680c0.5,0,0.9-0.4,0.9-0.9c0-0.1,0-0.1,0-0.2H669z"/>
	</g>
	<polygon fill="#F7F7F7" stroke="#00A9E0" stroke-width="0.6278" stroke-miterlimit="10" points="710.1,443 639.8,443 639.8,443 	
		"/>
	<ellipse fill="#F7F7F7" stroke="#00A9E0" stroke-width="0.6278" stroke-miterlimit="10" cx="644.6" cy="444" rx="0.4" ry="0.1"/>
	<ellipse fill="#F7F7F7" stroke="#00A9E0" stroke-width="0.6278" stroke-miterlimit="10" cx="664.9" cy="444" rx="0.4" ry="0.1"/>
	
		<rect x="649.9" y="406.9" fill="#F7F7F7" stroke="#00A9E0" stroke-width="0.6278" stroke-miterlimit="10" width="50.1" height="31.6"/>
	<circle fill="#F7F7F7" stroke="#00A9E0" stroke-width="0.6278" stroke-miterlimit="10" cx="674.9" cy="405.8" r="0.3"/>
</g>
<path opacity="0.89" fill="#2EA9E0" enable-background="new    " d="M2155.3,293.7h-289.9c-16.5,0-30-13.5-30-30v-67.9
	c0-16.5,13.5-30,30-30h289.9c16.5,0,30,13.5,30,30v67.9C2185.3,280.2,2171.8,293.7,2155.3,293.7z"/>
<g>
	<g>
		<path fill="#FFFFFF" d="M1862,215.4L1862,215.4c0-4.2,3.1-7.6,7.4-7.6c2.6,0,4.2,0.9,5.7,2.3l-1.1,1.2c-1.2-1.2-2.6-2-4.6-2
			c-3.2,0-5.6,2.6-5.6,6l0,0c0,3.4,2.4,6,5.6,6c2,0,3.3-0.8,4.7-2.1l1.1,1.1c-1.5,1.5-3.2,2.6-5.8,2.6
			C1865.1,222.9,1862,219.6,1862,215.4z"/>
		<path fill="#FFFFFF" d="M1878.7,208.1h6.3c1.8,0,3.2,0.5,4.1,1.5c0.7,0.7,1.1,1.7,1.1,2.9l0,0c0,2.4-1.7,3.8-3.9,4.2l4.5,5.9h-2
			l-4.2-5.6h-4.2v5.6h-1.6v-14.5H1878.7z M1884.8,215.5c2.2,0,3.7-1.1,3.7-3l0,0c0-1.8-1.4-2.9-3.7-2.9h-4.5v5.9H1884.8z"/>
		<path fill="#FFFFFF" d="M1894.5,208.1h10.5v1.5h-8.9v5h7.9v1.5h-7.9v5.1h9v1.5h-10.6V208.1z"/>
		<path fill="#FFFFFF" d="M1914.8,208h1.5l6.6,14.6h-1.8l-1.7-3.8h-7.9l-1.7,3.8h-1.7L1914.8,208z M1918.9,217.3l-3.3-7.4l-3.3,7.4
			H1918.9z"/>
		<path fill="#FFFFFF" d="M1928.4,209.6h-4.9v-1.5h11.4v1.5h-4.9v13h-1.7L1928.4,209.6L1928.4,209.6z"/>
		<path fill="#FFFFFF" d="M1938.5,208.1h10.5v1.5h-8.9v5h7.9v1.5h-7.9v5.1h9v1.5h-10.6V208.1z"/>
		<path fill="#FFFFFF" d="M1952.2,220.6l1-1.2c1.5,1.4,3,2.1,5,2.1s3.2-1,3.2-2.5l0,0c0-1.3-0.7-2.1-3.8-2.8
			c-3.3-0.7-4.9-1.8-4.9-4.2l0,0c0-2.3,2-4,4.8-4c2.1,0,3.6,0.6,5.1,1.8l-1,1.3c-1.4-1.1-2.7-1.6-4.2-1.6c-1.9,0-3.1,1-3.1,2.3l0,0
			c0,1.4,0.7,2.1,3.9,2.8c3.2,0.7,4.7,1.9,4.7,4.1l0,0c0,2.5-2.1,4.1-5,4.1C1955.9,222.9,1954,222.1,1952.2,220.6z"/>
		<path fill="#FFFFFF" d="M1973.2,220.6l1-1.2c1.5,1.4,3,2.1,5,2.1s3.2-1,3.2-2.5l0,0c0-1.3-0.7-2.1-3.8-2.8
			c-3.3-0.7-4.9-1.8-4.9-4.2l0,0c0-2.3,2-4,4.8-4c2.1,0,3.6,0.6,5.1,1.8l-1,1.3c-1.4-1.1-2.7-1.6-4.2-1.6c-1.9,0-3.1,1-3.1,2.3l0,0
			c0,1.4,0.7,2.1,3.9,2.8c3.2,0.7,4.7,1.9,4.7,4.1l0,0c0,2.5-2.1,4.1-5,4.1C1976.8,222.9,1975,222.1,1973.2,220.6z"/>
		<path fill="#FFFFFF" d="M1993.3,208h1.5l6.6,14.6h-1.8l-1.7-3.8h-7.9l-1.7,3.8h-1.7L1993.3,208z M1997.3,217.3l-3.3-7.4l-3.3,7.4
			H1997.3z"/>
		<path fill="#FFFFFF" d="M2004.9,208.1h1.7l5.3,7.9l5.3-7.9h1.7v14.5h-1.6v-11.7l-5.3,7.8h-0.1l-5.3-7.8v11.8h-1.6L2004.9,208.1
			L2004.9,208.1z"/>
		<path fill="#FFFFFF" d="M2023.8,208.1h1.6v13h8.2v1.5h-9.8L2023.8,208.1L2023.8,208.1z"/>
		<path fill="#FFFFFF" d="M2044.4,208.1h6.3c1.8,0,3.2,0.5,4.1,1.5c0.7,0.7,1.1,1.7,1.1,2.9l0,0c0,2.4-1.7,3.8-3.9,4.2l4.5,5.9h-2
			l-4.2-5.6h-4.2v5.6h-1.6v-14.5H2044.4z M2050.5,215.5c2.2,0,3.7-1.1,3.7-3l0,0c0-1.8-1.4-2.9-3.7-2.9h-4.5v5.9H2050.5z"/>
		<path fill="#FFFFFF" d="M2060.2,208.1h10.5v1.5h-8.9v5h7.9v1.5h-7.9v5.1h9v1.5h-10.6V208.1z"/>
		<path fill="#FFFFFF" d="M2087.5,223.1l-1.9-1.7c-1.2,1-2.8,1.5-4.6,1.5c-4.4,0-7.4-3.5-7.4-7.5l0,0c0-4,3-7.5,7.4-7.5
			s7.4,3.5,7.4,7.5l0,0c0,1.8-0.6,3.5-1.7,4.9l1.9,1.6L2087.5,223.1z M2084.4,220.3l-2.7-2.3l1.1-1.2l2.7,2.5c0.8-1,1.2-2.3,1.2-3.8
			l0,0c0-3.3-2.4-6-5.7-6c-3.3,0-5.7,2.7-5.7,6l0,0c0,3.3,2.4,6,5.7,6C2082.4,221.4,2083.5,221,2084.4,220.3z"/>
		<path fill="#FFFFFF" d="M2092.6,216.6v-8.5h1.6v8.4c0,3.1,1.7,4.9,4.4,4.9c2.7,0,4.4-1.6,4.4-4.8v-8.5h1.6v8.4
			c0,4.2-2.4,6.4-6.1,6.4C2095,222.9,2092.6,220.7,2092.6,216.6z"/>
		<path fill="#FFFFFF" d="M2109.5,208.1h10.5v1.5h-8.9v5h7.9v1.5h-7.9v5.1h9v1.5h-10.6V208.1z"/>
		<path fill="#FFFFFF" d="M2123.2,220.6l1-1.2c1.5,1.4,3,2.1,5,2.1s3.2-1,3.2-2.5l0,0c0-1.3-0.7-2.1-3.8-2.8
			c-3.3-0.7-4.9-1.8-4.9-4.2l0,0c0-2.3,2-4,4.8-4c2.1,0,3.6,0.6,5.1,1.8l-1,1.3c-1.4-1.1-2.7-1.6-4.2-1.6c-1.9,0-3.1,1-3.1,2.3l0,0
			c0,1.4,0.7,2.1,3.9,2.8s4.7,1.9,4.7,4.1l0,0c0,2.5-2.1,4.1-5,4.1C2126.9,222.9,2125,222.1,2123.2,220.6z"/>
		<path fill="#FFFFFF" d="M2142,209.6h-4.9v-1.5h11.4v1.5h-4.9v13h-1.7v-13H2142z"/>
		<path fill="#FFFFFF" d="M1870.8,249.7c-1.3,1.4-2.9,2.3-4.8,2.3c-2.6,0-4.6-1.6-4.6-4.1l0,0c0-1.9,1.3-3.3,3.5-4.2
			c-1-1.2-1.5-2.1-1.5-3.2l0,0c0-1.9,1.5-3.4,3.8-3.4c2,0,3.5,1.5,3.5,3.3l0,0c0,1.8-1.3,3-3.4,3.8l3.3,3.4c0.6-0.9,1.2-2,1.7-3.2
			l1.3,0.6c-0.6,1.4-1.3,2.6-2.1,3.7l2.5,2.6l-1.2,1L1870.8,249.7z M1869.8,248.7l-3.9-4c-1.9,0.7-2.8,1.9-2.8,3.1l0,0
			c0,1.6,1.2,2.7,3,2.7C1867.6,250.6,1868.8,249.8,1869.8,248.7z M1869.4,240.4L1869.4,240.4c0-1.2-0.9-2.1-2.1-2.1
			c-1.3,0-2.2,0.9-2.2,2.1l0,0c0,0.9,0.4,1.5,1.5,2.7C1868.5,242.5,1869.4,241.6,1869.4,240.4z"/>
		<path fill="#FFFFFF" d="M1883.8,249.6l1-1.2c1.5,1.4,3,2.1,5,2.1s3.2-1,3.2-2.5l0,0c0-1.3-0.7-2.1-3.8-2.8
			c-3.3-0.7-4.9-1.8-4.9-4.2l0,0c0-2.3,2-4,4.8-4c2.1,0,3.6,0.6,5.1,1.8l-1,1.3c-1.4-1.1-2.7-1.6-4.2-1.6c-1.9,0-3.1,1-3.1,2.3l0,0
			c0,1.4,0.7,2.1,3.9,2.8c3.2,0.7,4.7,1.9,4.7,4.1l0,0c0,2.5-2.1,4.1-5,4.1C1887.5,252,1885.6,251.2,1883.8,249.6z"/>
		<path fill="#FFFFFF" d="M1898.9,237.2h10.5v1.5h-8.9v5h7.9v1.5h-7.9v5.1h9v1.5h-10.6V237.2z"/>
		<path fill="#FFFFFF" d="M1913.3,237.2h1.5l9.2,11.7v-11.7h1.6v14.5h-1.3l-9.4-11.9v11.9h-1.6L1913.3,237.2L1913.3,237.2z"/>
		<path fill="#FFFFFF" d="M1930.6,237.2h5c4.6,0,7.7,3.1,7.7,7.2l0,0c0,4.1-3.2,7.3-7.7,7.3h-5V237.2z M1932.2,238.7v11.5h3.4
			c3.7,0,6-2.5,6-5.7l0,0c0-3.2-2.3-5.8-6-5.8H1932.2z"/>
		<path fill="#FFFFFF" d="M1946.3,249.6l1-1.2c1.5,1.4,3,2.1,5,2.1s3.2-1,3.2-2.5l0,0c0-1.3-0.7-2.1-3.8-2.8
			c-3.3-0.7-4.9-1.8-4.9-4.2l0,0c0-2.3,2-4,4.8-4c2.1,0,3.6,0.6,5.1,1.8l-1,1.3c-1.4-1.1-2.7-1.6-4.2-1.6c-1.9,0-3.1,1-3.1,2.3l0,0
			c0,1.4,0.7,2.1,3.9,2.8c3.2,0.7,4.7,1.9,4.7,4.1l0,0c0,2.5-2.1,4.1-5,4.1C1949.9,252,1948,251.2,1946.3,249.6z"/>
		<path fill="#FFFFFF" d="M1972.1,238.7h-4.9v-1.5h11.4v1.5h-4.9v13h-1.7L1972.1,238.7L1972.1,238.7z"/>
		<path fill="#FFFFFF" d="M1980.7,244.5L1980.7,244.5c0-4,3-7.6,7.4-7.6s7.4,3.5,7.4,7.5l0,0c0,4-3,7.5-7.4,7.5
			C1983.7,252,1980.7,248.5,1980.7,244.5z M1993.8,244.5L1993.8,244.5c0-3.3-2.4-6-5.7-6c-3.3,0-5.7,2.7-5.7,6l0,0
			c0,3.3,2.4,6,5.7,6C1991.5,250.5,1993.8,247.8,1993.8,244.5z"/>
		<path fill="#FFFFFF" d="M2006.8,237.2h1.6v14.5h-1.6V237.2z"/>
		<path fill="#FFFFFF" d="M2013.5,237.2h5c4.6,0,7.7,3.1,7.7,7.2l0,0c0,4.1-3.2,7.3-7.7,7.3h-5V237.2z M2015.2,238.7v11.5h3.4
			c3.7,0,6-2.5,6-5.7l0,0c0-3.2-2.3-5.8-6-5.8H2015.2z"/>
		<path fill="#FFFFFF" d="M2030.5,237.2h5.4c3.3,0,5.4,1.7,5.4,4.6l0,0c0,3.1-2.6,4.8-5.7,4.8h-3.5v5.1h-1.6L2030.5,237.2
			L2030.5,237.2z M2035.7,245.1c2.4,0,4-1.3,4-3.2l0,0c0-2.1-1.6-3.2-3.9-3.2h-3.7v6.4C2032.1,245.1,2035.7,245.1,2035.7,245.1z"/>
	</g>
</g>
<path opacity="0.89" fill="#2EA9E0" enable-background="new    " d="M1150.3,635.7H860.4c-16.5,0-30-13.5-30-30v-67.9
	c0-16.5,13.5-30,30-30h289.9c16.5,0,30,13.5,30,30v67.9C1180.3,622.2,1166.8,635.7,1150.3,635.7z"/>
<g>
	<g>
		<path fill="#FFFFFF" d="M866,539h1.5l6.6,14.6h-1.8l-1.7-3.8h-7.9l-1.7,3.8h-1.7L866,539z M870.1,548.3l-3.3-7.4l-3.3,7.4H870.1z"
			/>
		<path fill="#FFFFFF" d="M877.7,539.1h5.4c3.3,0,5.4,1.7,5.4,4.6l0,0c0,3.1-2.6,4.8-5.7,4.8h-3.5v5.1h-1.6L877.7,539.1L877.7,539.1
			z M882.9,547c2.4,0,4-1.3,4-3.2l0,0c0-2.1-1.6-3.2-3.9-3.2h-3.7v6.4H882.9L882.9,547z"/>
		<path fill="#FFFFFF" d="M892.2,539.1h5.4c3.3,0,5.4,1.7,5.4,4.6l0,0c0,3.1-2.6,4.8-5.7,4.8h-3.5v5.1h-1.6L892.2,539.1L892.2,539.1
			z M897.4,547c2.4,0,4-1.3,4-3.2l0,0c0-2.1-1.6-3.2-3.9-3.2h-3.7v6.4H897.4L897.4,547z"/>
		<path fill="#FFFFFF" d="M912.5,539.1h1.8l5.2,12.5l5.2-12.5h1.8l-6.3,14.6h-1.5L912.5,539.1z"/>
		<path fill="#FFFFFF" d="M929.9,539.1h10.5v1.5h-8.9v5h7.9v1.5h-7.9v5.1h9v1.5h-10.6V539.1z"/>
		<path fill="#FFFFFF" d="M944.4,539.1h6.3c1.8,0,3.2,0.5,4.1,1.5c0.7,0.7,1.1,1.7,1.1,2.9l0,0c0,2.4-1.7,3.8-3.9,4.2l4.5,5.9h-2
			l-4.2-5.6H946v5.6h-1.6V539.1z M950.5,546.5c2.2,0,3.7-1.1,3.7-3l0,0c0-1.8-1.4-2.9-3.7-2.9H946v5.9H950.5z"/>
		<path fill="#FFFFFF" d="M960.2,539.1h1.6v14.5h-1.6V539.1z"/>
		<path fill="#FFFFFF" d="M966.9,539.1h10.4v1.5h-8.8v5.2h7.9v1.5h-7.9v6.3h-1.6V539.1z"/>
		<path fill="#FFFFFF" d="M981.1,539.1h1.6v14.5h-1.6V539.1z"/>
		<path fill="#FFFFFF" d="M987.7,539.1h10.5v1.5h-8.9v5h7.9v1.5h-7.9v5.1h9v1.5h-10.6V539.1z"/>
		<path fill="#FFFFFF" d="M1001.5,551.6l1-1.2c1.5,1.4,3,2.1,5,2.1s3.2-1,3.2-2.5l0,0c0-1.3-0.7-2.1-3.8-2.8
			c-3.3-0.7-4.9-1.8-4.9-4.2l0,0c0-2.3,2-4,4.8-4c2.1,0,3.6,0.6,5.1,1.8l-1,1.3c-1.4-1.1-2.7-1.6-4.2-1.6c-1.9,0-3.1,1-3.1,2.3l0,0
			c0,1.4,0.7,2.1,3.9,2.8c3.2,0.7,4.7,1.9,4.7,4.1l0,0c0,2.5-2.1,4.1-5,4.1C1005.1,553.9,1003.2,553.1,1001.5,551.6z"/>
		<path fill="#FFFFFF" d="M1022.4,551.6l1-1.2c1.5,1.4,3,2.1,5,2.1s3.2-1,3.2-2.5l0,0c0-1.3-0.7-2.1-3.8-2.8
			c-3.3-0.7-4.9-1.8-4.9-4.2l0,0c0-2.3,2-4,4.8-4c2.1,0,3.6,0.6,5.1,1.8l-1,1.3c-1.4-1.1-2.7-1.6-4.2-1.6c-1.9,0-3.1,1-3.1,2.3l0,0
			c0,1.4,0.7,2.1,3.9,2.8c3.2,0.7,4.7,1.9,4.7,4.1l0,0c0,2.5-2.1,4.1-5,4.1C1026.1,553.9,1024.2,553.1,1022.4,551.6z"/>
		<path fill="#FFFFFF" d="M1042.5,539h1.5l6.6,14.6h-1.8l-1.7-3.8h-7.9l-1.7,3.8h-1.7L1042.5,539z M1046.5,548.3l-3.3-7.4l-3.3,7.4
			H1046.5z"/>
		<path fill="#FFFFFF" d="M1054.1,539.1h1.7l5.3,7.9l5.3-7.9h1.7v14.5h-1.6v-11.8l-5.3,7.8h-0.2l-5.3-7.8v11.8h-1.6V539.1z"/>
		<path fill="#FFFFFF" d="M1073.1,539.1h1.6v13h8.2v1.5h-9.8V539.1z"/>
		<path fill="#FFFFFF" d="M860.6,568.2h6.3c1.8,0,3.2,0.5,4.1,1.5c0.7,0.7,1.1,1.7,1.1,2.9l0,0c0,2.4-1.7,3.8-3.9,4.2l4.5,5.9h-2
			l-4.2-5.6h-4.2v5.6h-1.6L860.6,568.2L860.6,568.2z M866.7,575.6c2.2,0,3.7-1.1,3.7-3l0,0c0-1.8-1.4-2.9-3.7-2.9h-4.5v5.9H866.7z"
			/>
		<path fill="#FFFFFF" d="M876.4,568.2H887v1.5h-8.9v5h7.9v1.5h-7.9v5.1h9v1.5h-10.6L876.4,568.2L876.4,568.2z"/>
		<path fill="#FFFFFF" d="M890.2,580.6l1-1.2c1.5,1.4,3,2.1,5,2.1s3.2-1,3.2-2.5l0,0c0-1.3-0.7-2.1-3.8-2.8
			c-3.3-0.7-4.9-1.8-4.9-4.2l0,0c0-2.3,2-4,4.8-4c2.1,0,3.6,0.6,5.1,1.8l-1,1.3c-1.4-1.1-2.7-1.6-4.2-1.6c-1.9,0-3.1,1-3.1,2.3l0,0
			c0,1.4,0.7,2.1,3.9,2.8c3.2,0.7,4.7,1.9,4.7,4.1l0,0c0,2.5-2.1,4.1-5,4.1C893.8,583,891.9,582.2,890.2,580.6z"/>
		<path fill="#FFFFFF" d="M905.2,568.2h5.4c3.3,0,5.4,1.7,5.4,4.6l0,0c0,3.1-2.6,4.8-5.7,4.8h-3.5v5.1h-1.6L905.2,568.2L905.2,568.2
			z M910.4,576.1c2.4,0,4-1.3,4-3.2l0,0c0-2.1-1.6-3.2-3.9-3.2h-3.7v6.4H910.4L910.4,576.1z"/>
		<path fill="#FFFFFF" d="M919.2,575.5L919.2,575.5c0-4,3-7.6,7.4-7.6c4.4,0,7.4,3.5,7.4,7.5l0,0c0,4-3,7.5-7.4,7.5
			C922.2,583,919.2,579.5,919.2,575.5z M932.4,575.5L932.4,575.5c0-3.3-2.4-6-5.7-6c-3.3,0-5.7,2.7-5.7,6l0,0c0,3.3,2.4,6,5.7,6
			C930,581.5,932.4,578.8,932.4,575.5z"/>
		<path fill="#FFFFFF" d="M938.3,568.2h1.5l9.2,11.7v-11.7h1.6v14.5h-1.3l-9.4-11.9v11.9h-1.6L938.3,568.2L938.3,568.2z"/>
		<path fill="#FFFFFF" d="M954.5,580.6l1-1.2c1.5,1.4,3,2.1,5,2.1s3.2-1,3.2-2.5l0,0c0-1.3-0.7-2.1-3.8-2.8
			c-3.3-0.7-4.9-1.8-4.9-4.2l0,0c0-2.3,2-4,4.8-4c2.1,0,3.6,0.6,5.1,1.8l-1,1.3c-1.4-1.1-2.7-1.6-4.2-1.6c-1.9,0-3.1,1-3.1,2.3l0,0
			c0,1.4,0.7,2.1,3.9,2.8c3.2,0.7,4.7,1.9,4.7,4.1l0,0c0,2.5-2.1,4.1-5,4.1C958.2,583,956.3,582.2,954.5,580.6z"/>
		<path fill="#FFFFFF" d="M969.6,568.2h10.5v1.5h-8.9v5h7.9v1.5h-7.9v5.1h9v1.5h-10.6V568.2z"/>
		<path fill="#FFFFFF" d="M999.4,580.7c-1.3,1.4-2.9,2.3-4.8,2.3c-2.6,0-4.6-1.6-4.6-4.1l0,0c0-1.9,1.3-3.3,3.5-4.2
			c-1-1.2-1.5-2.1-1.5-3.2l0,0c0-1.9,1.5-3.4,3.8-3.4c2,0,3.5,1.5,3.5,3.3l0,0c0,1.8-1.3,3-3.4,3.8l3.3,3.4c0.6-0.9,1.2-2,1.7-3.2
			l1.3,0.6c-0.6,1.4-1.3,2.6-2.1,3.7l2.5,2.6l-1.2,1L999.4,580.7z M998.4,579.7l-3.9-4c-1.9,0.7-2.8,1.9-2.8,3.1l0,0
			c0,1.6,1.2,2.7,3,2.7C996.1,581.6,997.3,580.8,998.4,579.7z M998,571.4L998,571.4c0-1.2-0.9-2.1-2.1-2.1c-1.3,0-2.2,0.9-2.2,2.1
			l0,0c0,0.9,0.4,1.5,1.5,2.7C997,573.5,998,572.6,998,571.4z"/>
		<path fill="#FFFFFF" d="M1013.3,568.2h1.6v13h8.2v1.5h-9.8L1013.3,568.2L1013.3,568.2z"/>
		<path fill="#FFFFFF" d="M1025.3,575.5L1025.3,575.5c0-4,3-7.6,7.4-7.6c4.4,0,7.4,3.5,7.4,7.5l0,0c0,4-3,7.5-7.4,7.5
			C1028.3,583,1025.3,579.5,1025.3,575.5z M1038.4,575.5L1038.4,575.5c0-3.3-2.4-6-5.7-6c-3.3,0-5.7,2.7-5.7,6l0,0
			c0,3.3,2.4,6,5.7,6C1036.1,581.5,1038.4,578.8,1038.4,575.5z"/>
		<path fill="#FFFFFF" d="M1043.6,575.5L1043.6,575.5c0-4,2.9-7.6,7.3-7.6c2.5,0,4,0.7,5.4,1.9l-1.1,1.2c-1.1-1-2.4-1.7-4.4-1.7
			c-3.2,0-5.5,2.7-5.5,6l0,0c0,3.5,2.2,6,5.8,6c1.7,0,3.2-0.6,4.2-1.5v-3.3h-4.4V575h6v5.8c-1.3,1.2-3.4,2.2-5.8,2.2
			C1046.4,583,1043.6,579.7,1043.6,575.5z"/>
		<path fill="#FFFFFF" d="M1060.3,580.6l1-1.2c1.5,1.4,3,2.1,5,2.1s3.2-1,3.2-2.5l0,0c0-1.3-0.7-2.1-3.8-2.8
			c-3.3-0.7-4.9-1.8-4.9-4.2l0,0c0-2.3,2-4,4.8-4c2.1,0,3.6,0.6,5.1,1.8l-1,1.3c-1.4-1.1-2.7-1.6-4.2-1.6c-1.9,0-3.1,1-3.1,2.3l0,0
			c0,1.4,0.7,2.1,3.9,2.8c3.2,0.7,4.7,1.9,4.7,4.1l0,0c0,2.5-2.1,4.1-5,4.1C1063.9,583,1062,582.2,1060.3,580.6z"/>
		<path fill="#FFFFFF" d="M1082,576.7v-8.5h1.6v8.3c0,3.1,1.7,4.9,4.4,4.9s4.4-1.6,4.4-4.8v-8.5h1.6v8.3c0,4.2-2.4,6.4-6.1,6.4
			C1084.4,583,1082,580.8,1082,576.7z"/>
		<path fill="#FFFFFF" d="M1097.7,580.6l1-1.2c1.5,1.4,3,2.1,5,2.1s3.2-1,3.2-2.5l0,0c0-1.3-0.7-2.1-3.8-2.8
			c-3.3-0.7-4.9-1.8-4.9-4.2l0,0c0-2.3,2-4,4.8-4c2.1,0,3.6,0.6,5.1,1.8l-1,1.3c-1.4-1.1-2.7-1.6-4.2-1.6c-1.9,0-3.1,1-3.1,2.3l0,0
			c0,1.4,0.7,2.1,3.9,2.8c3.2,0.7,4.7,1.9,4.7,4.1l0,0c0,2.5-2.1,4.1-5,4.1C1101.3,583,1099.4,582.2,1097.7,580.6z"/>
		<path fill="#FFFFFF" d="M1112.7,568.2h10.5v1.5h-8.9v5h7.9v1.5h-7.9v5.1h9v1.5h-10.6V568.2z"/>
		<path fill="#FFFFFF" d="M1127.2,568.2h6.3c1.8,0,3.2,0.5,4.1,1.5c0.7,0.7,1.1,1.7,1.1,2.9l0,0c0,2.4-1.7,3.8-3.9,4.2l4.5,5.9h-2
			l-4.2-5.6h-4.2v5.6h-1.6L1127.2,568.2L1127.2,568.2z M1133.3,575.6c2.2,0,3.7-1.1,3.7-3l0,0c0-1.8-1.4-2.9-3.7-2.9h-4.5v5.9
			H1133.3z"/>
		<path fill="#FFFFFF" d="M860.8,597.3h1.6v14.5h-1.6V597.3z"/>
		<path fill="#FFFFFF" d="M867.4,597.3h1.5l9.2,11.7v-11.7h1.6v14.5h-1.3l-9.4-11.9v11.9h-1.6V597.3L867.4,597.3z"/>
	</g>
</g>
<path opacity="0.89" fill="#2EA9E0" enable-background="new    " d="M1150.3,293.7H860.4c-16.5,0-30-13.5-30-30v-67.9
	c0-16.5,13.5-30,30-30h289.9c16.5,0,30,13.5,30,30v67.9C1180.3,280.2,1166.8,293.7,1150.3,293.7z"/>
<g>
	<g>
		<path fill="#FFFFFF" d="M883.4,235.6v-8.5h1.6v8.4c0,3.1,1.7,4.9,4.4,4.9c2.7,0,4.4-1.6,4.4-4.8v-8.5h1.6v8.4
			c0,4.2-2.4,6.4-6.1,6.4C885.9,241.9,883.4,239.7,883.4,235.6z"/>
		<path fill="#FFFFFF" d="M899.1,239.6l1-1.2c1.5,1.4,3,2.1,5,2.1s3.2-1,3.2-2.5l0,0c0-1.3-0.7-2.1-3.8-2.8
			c-3.3-0.7-4.9-1.8-4.9-4.2l0,0c0-2.3,2-4,4.8-4c2.1,0,3.6,0.6,5.1,1.8l-1,1.3c-1.4-1.1-2.7-1.6-4.2-1.6c-1.9,0-3.1,1-3.1,2.3l0,0
			c0,1.4,0.7,2.1,3.9,2.8c3.2,0.7,4.7,1.9,4.7,4.1l0,0c0,2.5-2.1,4.1-5,4.1C902.7,241.9,900.8,241.1,899.1,239.6z"/>
		<path fill="#FFFFFF" d="M914.2,227.1h10.5v1.5h-8.9v5h7.9v1.5h-7.9v5.1h9v1.5h-10.6V227.1z"/>
		<path fill="#FFFFFF" d="M928.6,227.1h6.3c1.8,0,3.2,0.5,4.1,1.5c0.7,0.7,1.1,1.7,1.1,2.9l0,0c0,2.4-1.7,3.8-3.9,4.2l4.5,5.9h-2
			l-4.2-5.6h-4.2v5.6h-1.6L928.6,227.1L928.6,227.1z M934.7,234.5c2.2,0,3.7-1.1,3.7-3l0,0c0-1.8-1.4-2.9-3.7-2.9h-4.5v5.9H934.7z"
			/>
		<path fill="#FFFFFF" d="M956.7,227h1.5l6.6,14.6H963l-1.7-3.8h-7.9l-1.7,3.8H950L956.7,227z M960.7,236.3l-3.3-7.4l-3.3,7.4H960.7
			z"/>
		<path fill="#FFFFFF" d="M966.9,234.4L966.9,234.4c0-4.2,3.1-7.6,7.4-7.6c2.6,0,4.2,0.9,5.7,2.3l-1.1,1.2c-1.2-1.2-2.6-2-4.6-2
			c-3.2,0-5.6,2.6-5.6,6l0,0c0,3.4,2.4,6,5.6,6c2,0,3.3-0.8,4.7-2.1l1.1,1.1c-1.5,1.5-3.2,2.6-5.8,2.6
			C970,241.9,966.9,238.6,966.9,234.4z"/>
		<path fill="#FFFFFF" d="M982.5,234.4L982.5,234.4c0-4.2,3.1-7.6,7.4-7.6c2.6,0,4.2,0.9,5.7,2.3l-1.1,1.2c-1.2-1.2-2.6-2-4.6-2
			c-3.2,0-5.6,2.6-5.6,6l0,0c0,3.4,2.4,6,5.6,6c2,0,3.3-0.8,4.7-2.1l1.1,1.1c-1.5,1.5-3.2,2.6-5.8,2.6
			C985.6,241.9,982.5,238.6,982.5,234.4z"/>
		<path fill="#FFFFFF" d="M999.2,227.1h10.5v1.5h-8.9v5h7.9v1.5h-7.9v5.1h9v1.5h-10.6V227.1z"/>
		<path fill="#FFFFFF" d="M1012.9,239.6l1-1.2c1.5,1.4,3,2.1,5,2.1s3.2-1,3.2-2.5l0,0c0-1.3-0.7-2.1-3.8-2.8
			c-3.3-0.7-4.9-1.8-4.9-4.2l0,0c0-2.3,2-4,4.8-4c2.1,0,3.6,0.6,5.1,1.8l-1,1.3c-1.4-1.1-2.7-1.6-4.2-1.6c-1.9,0-3.1,1-3.1,2.3l0,0
			c0,1.4,0.7,2.1,3.9,2.8c3.2,0.7,4.7,1.9,4.7,4.1l0,0c0,2.5-2.1,4.1-5,4.1C1016.6,241.9,1014.7,241.1,1012.9,239.6z"/>
		<path fill="#FFFFFF" d="M1027,239.6l1-1.2c1.5,1.4,3,2.1,5,2.1s3.2-1,3.2-2.5l0,0c0-1.3-0.7-2.1-3.8-2.8c-3.3-0.7-4.9-1.8-4.9-4.2
			l0,0c0-2.3,2-4,4.8-4c2.1,0,3.6,0.6,5.1,1.8l-1,1.3c-1.4-1.1-2.7-1.6-4.2-1.6c-1.9,0-3.1,1-3.1,2.3l0,0c0,1.4,0.7,2.1,3.9,2.8
			c3.2,0.7,4.7,1.9,4.7,4.1l0,0c0,2.5-2.1,4.1-5,4.1C1030.6,241.9,1028.7,241.1,1027,239.6z"/>
		<path fill="#FFFFFF" d="M1042,227.1h10.5v1.5h-8.9v5h7.9v1.5h-7.9v5.1h9v1.5H1042V227.1z"/>
		<path fill="#FFFFFF" d="M1055.7,239.6l1-1.2c1.5,1.4,3,2.1,5,2.1s3.2-1,3.2-2.5l0,0c0-1.3-0.7-2.1-3.8-2.8
			c-3.3-0.7-4.9-1.8-4.9-4.2l0,0c0-2.3,2-4,4.8-4c2.1,0,3.6,0.6,5.1,1.8l-1,1.3c-1.4-1.1-2.7-1.6-4.2-1.6c-1.9,0-3.1,1-3.1,2.3l0,0
			c0,1.4,0.7,2.1,3.9,2.8c3.2,0.7,4.7,1.9,4.7,4.1l0,0c0,2.5-2.1,4.1-5,4.1C1059.4,241.9,1057.5,241.1,1055.7,239.6z"/>
		<path fill="#FFFFFF" d="M1083,227h1.5l6.6,14.6h-1.8l-1.7-3.8h-7.9l-1.7,3.8h-1.7L1083,227z M1087.1,236.3l-3.3-7.4l-3.3,7.4
			H1087.1z"/>
		<path fill="#FFFFFF" d="M1094.7,227.1h5.4c3.3,0,5.4,1.7,5.4,4.6l0,0c0,3.1-2.6,4.8-5.7,4.8h-3.5v5.1h-1.6L1094.7,227.1
			L1094.7,227.1z M1099.9,235c2.4,0,4-1.3,4-3.2l0,0c0-2.1-1.6-3.2-3.9-3.2h-3.7v6.4C1096.3,235,1099.9,235,1099.9,235z"/>
		<path fill="#FFFFFF" d="M1109.2,227.1h5.4c3.3,0,5.4,1.7,5.4,4.6l0,0c0,3.1-2.6,4.8-5.7,4.8h-3.5v5.1h-1.6L1109.2,227.1
			L1109.2,227.1z M1114.4,235c2.4,0,4-1.3,4-3.2l0,0c0-2.1-1.6-3.2-3.9-3.2h-3.7v6.4C1110.8,235,1114.4,235,1114.4,235z"/>
	</g>
</g>
<g>
	<path fill="none" stroke="#999999" stroke-miterlimit="10" d="M830.5,230.5H701c-27.5,0-50,17.6-50,39s0,39,0,39"/>
</g>
<line fill="none" stroke="#999999" stroke-miterlimit="10" x1="1180.3" y1="230.5" x2="1306.6" y2="230.5"/>
<polyline fill="none" stroke="#00A9E0" stroke-width="10" stroke-linecap="round" stroke-miterlimit="10" points="1299.9,223.1 
	1306.6,230.5 1299.9,237.8 "/>
<line fill="none" stroke="#999999" stroke-miterlimit="10" x1="1664.6" y1="230.5" x2="1835.4" y2="230.5"/>
<g>
	<path fill="none" stroke="#999999" stroke-width="1.4024" stroke-miterlimit="10" d="M2177,230.5h129.5c27.5,0,50,12.6,50,28
		s0,28,0,28"/>
</g>
<polyline fill="none" stroke="#00A9E0" stroke-width="10" stroke-linecap="round" stroke-miterlimit="10" points="2363.9,283.5 
	2356.5,290.1 2349.2,283.5 "/>
<g>
	<path fill="none" stroke="#999999" stroke-miterlimit="10" d="M2177,572h129.5c27.5,0,50-17.1,50-38s0-38,0-38"/>
</g>
<line fill="none" stroke="#999999" stroke-miterlimit="10" x1="1835.4" y1="572" x2="1701.1" y2="572"/>
<polyline fill="none" stroke="#00A9E0" stroke-width="10" stroke-linecap="round" stroke-miterlimit="10" points="1707.8,564.6 
	1701.1,572 1707.8,579.3 "/>
<line fill="none" stroke="#999999" stroke-width="1.4024" stroke-miterlimit="10" x1="1345.5" y1="572" x2="1181.1" y2="572"/>
<g>
	<path fill="none" stroke="#999999" stroke-width="1.4024" stroke-miterlimit="10" d="M831.1,574.6H701.6c-27.5,0-50-12.6-50-28
		c0-15.4,0-28,0-28"/>
</g>
<polyline fill="none" stroke="#00A9E0" stroke-width="10" stroke-linecap="round" stroke-miterlimit="10" points="644.2,521.6 
	651.6,514.9 658.9,521.6 "/>
<circle fill="#00A9E0" cx="753.3" cy="230.5" r="24.6"/>
<g>
	<path fill="#FFFFFF" d="M734.4,231.3v-0.7l4.7-2.3v0.8l-3.9,1.9l3.9,1.9v0.8L734.4,231.3z"/>
	<path fill="#FFFFFF" d="M745.4,226.5h0.7l-4.6,9.3h-0.7L745.4,226.5z"/>
	<path fill="#FFFFFF" d="M752.8,228.3l-1.3,0.4l-0.2-0.6l1.7-0.6h0.6v7h-0.8V228.3z"/>
	<path fill="#FFFFFF" d="M764,226.5h0.7l-4.6,9.3h-0.7L764,226.5z"/>
	<path fill="#FFFFFF" d="M766.6,232.8l3.8-1.9l-3.8-1.9v-0.8l4.7,2.3v0.7l-4.7,2.3V232.8z"/>
</g>
<circle fill="#00A9E0" cx="1758.3" cy="230.5" r="24.6"/>
<g>
	<path fill="#FFFFFF" d="M1738.7,231.3v-0.7l4.7-2.3v0.8l-3.9,1.9l3.9,1.9v0.8L1738.7,231.3z"/>
	<path fill="#FFFFFF" d="M1749.7,226.5h0.7l-4.6,9.3h-0.7L1749.7,226.5z"/>
	<path fill="#FFFFFF" d="M1755.8,233.9l2.5-2.2c1.1-1,1.5-1.5,1.5-2.2c0-0.8-0.6-1.3-1.4-1.3s-1.3,0.4-1.9,1.2l-0.6-0.4
		c0.6-0.9,1.3-1.5,2.5-1.5c1.3,0,2.2,0.8,2.2,2l0,0c0,1-0.5,1.6-1.8,2.7l-1.9,1.7h3.7v0.6h-4.9v-0.6H1755.8z"/>
	<path fill="#FFFFFF" d="M1770.8,226.5h0.7l-4.6,9.3h-0.7L1770.8,226.5z"/>
	<path fill="#FFFFFF" d="M1773.3,232.8l3.8-1.9l-3.8-1.9v-0.8l4.7,2.3v0.7l-4.7,2.3V232.8z"/>
</g>
<circle fill="#00A9E0" cx="2263.1" cy="571.7" r="24.6"/>
<g>
	<path fill="#FFFFFF" d="M2243.4,572.6v-0.7l4.7-2.3v0.8l-3.9,1.9l3.9,1.9v0.8L2243.4,572.6z"/>
	<path fill="#FFFFFF" d="M2254.5,567.8h0.7l-4.6,9.3h-0.7L2254.5,567.8z"/>
	<path fill="#FFFFFF" d="M2260.6,574.6l0.6-0.5c0.5,0.7,1.2,1,2,1s1.5-0.5,1.5-1.4l0,0c0-0.9-0.8-1.3-2-1.3h-0.4l-0.2-0.5l2.2-2.5
		h-3.4v-0.7h4.5v0.6l-2.2,2.4c1.2,0.1,2.3,0.7,2.3,2l0,0c0,1.2-1,2.1-2.3,2.1C2262,575.9,2261.2,575.4,2260.6,574.6z"/>
	<path fill="#FFFFFF" d="M2275.7,567.8h0.7l-4.6,9.3h-0.7L2275.7,567.8z"/>
	<path fill="#FFFFFF" d="M2278.2,574.1l3.8-1.9l-3.8-1.9v-0.8l4.7,2.3v0.7l-4.7,2.3V574.1z"/>
</g>
<path opacity="0.89" fill="#2EA9E0" enable-background="new    " d="M2155.3,635.7h-289.9c-16.5,0-30-13.5-30-30v-67.9
	c0-16.5,13.5-30,30-30h289.9c16.5,0,30,13.5,30,30v67.9C2185.3,622.2,2171.8,635.7,2155.3,635.7z"/>
<g>
	<g>
		<path fill="#FFFFFF" d="M1862.8,539.1h1.6v14.5h-1.6V539.1z"/>
		<path fill="#FFFFFF" d="M1869.4,539.1h5c4.6,0,7.7,3.1,7.7,7.2l0,0c0,4.1-3.2,7.3-7.7,7.3h-5V539.1z M1871.1,540.6v11.5h3.4
			c3.7,0,6-2.5,6-5.7l0,0c0-3.2-2.3-5.8-6-5.8H1871.1z"/>
		<path fill="#FFFFFF" d="M1886.4,539.1h5.4c3.3,0,5.4,1.7,5.4,4.6l0,0c0,3.1-2.6,4.8-5.7,4.8h-3.5v5.1h-1.6L1886.4,539.1
			L1886.4,539.1z M1891.7,547c2.4,0,4-1.3,4-3.2l0,0c0-2.1-1.6-3.2-3.9-3.2h-3.7v6.4H1891.7L1891.7,547z"/>
		<path fill="#FFFFFF" d="M1908.1,539.1h1.6v14.5h-1.6V539.1z"/>
		<path fill="#FFFFFF" d="M1914.8,539.1h5c4.6,0,7.7,3.1,7.7,7.2l0,0c0,4.1-3.2,7.3-7.7,7.3h-5V539.1z M1916.5,540.6v11.5h3.4
			c3.7,0,6-2.5,6-5.7l0,0c0-3.2-2.3-5.8-6-5.8H1916.5z"/>
		<path fill="#FFFFFF" d="M1930.5,551.6l1-1.2c1.5,1.4,3,2.1,5,2.1s3.2-1,3.2-2.5l0,0c0-1.3-0.7-2.1-3.8-2.8
			c-3.3-0.7-4.9-1.8-4.9-4.2l0,0c0-2.3,2-4,4.8-4c2.1,0,3.6,0.6,5.1,1.8l-1,1.3c-1.4-1.1-2.7-1.6-4.2-1.6c-1.9,0-3.1,1-3.1,2.3l0,0
			c0,1.4,0.7,2.1,3.9,2.8c3.2,0.7,4.7,1.9,4.7,4.1l0,0c0,2.5-2.1,4.1-5,4.1C1934.1,553.9,1932.2,553.1,1930.5,551.6z"/>
		<path fill="#FFFFFF" d="M1952.2,547.6v-8.5h1.6v8.3c0,3.1,1.7,4.9,4.4,4.9c2.7,0,4.4-1.6,4.4-4.8V539h1.6v8.3
			c0,4.2-2.4,6.4-6.1,6.4C1954.7,553.9,1952.2,551.7,1952.2,547.6z"/>
		<path fill="#FFFFFF" d="M1967.9,551.6l1-1.2c1.5,1.4,3,2.1,5,2.1s3.2-1,3.2-2.5l0,0c0-1.3-0.7-2.1-3.8-2.8
			c-3.3-0.7-4.9-1.8-4.9-4.2l0,0c0-2.3,2-4,4.8-4c2.1,0,3.6,0.6,5.1,1.8l-1,1.3c-1.4-1.1-2.7-1.6-4.2-1.6c-1.9,0-3.1,1-3.1,2.3l0,0
			c0,1.4,0.7,2.1,3.9,2.8c3.2,0.7,4.7,1.9,4.7,4.1l0,0c0,2.5-2.1,4.1-5,4.1C1971.5,553.9,1969.6,553.1,1967.9,551.6z"/>
		<path fill="#FFFFFF" d="M1983,539.1h10.5v1.5h-8.9v5h7.9v1.5h-7.9v5.1h9v1.5H1983V539.1z"/>
		<path fill="#FFFFFF" d="M1997.4,539.1h6.3c1.8,0,3.2,0.5,4.1,1.5c0.7,0.7,1.1,1.7,1.1,2.9l0,0c0,2.4-1.7,3.8-3.9,4.2l4.5,5.9h-2
			l-4.2-5.6h-4.2v5.6h-1.6v-14.5H1997.4z M2003.5,546.5c2.2,0,3.7-1.1,3.7-3l0,0c0-1.8-1.4-2.9-3.7-2.9h-4.5v5.9H2003.5z"/>
		<path fill="#FFFFFF" d="M2012.4,555.5c1-0.4,1.5-0.9,1.4-1.8h-0.7v-2.2h1.9v1.9c0,1.7-0.7,2.5-2.3,2.8L2012.4,555.5z"/>
		<path fill="#FFFFFF" d="M2025.6,546.4L2025.6,546.4c0-4.2,3.1-7.6,7.4-7.6c2.6,0,4.2,0.9,5.7,2.3l-1.1,1.2c-1.2-1.2-2.6-2-4.6-2
			c-3.2,0-5.6,2.6-5.6,6l0,0c0,3.4,2.4,6,5.6,6c2,0,3.3-0.8,4.7-2.1l1.1,1.1c-1.5,1.5-3.2,2.6-5.8,2.6
			C2028.7,553.9,2025.6,550.6,2025.6,546.4z"/>
		<path fill="#FFFFFF" d="M2042.3,539.1h6.3c1.8,0,3.2,0.5,4.1,1.5c0.7,0.7,1.1,1.7,1.1,2.9l0,0c0,2.4-1.7,3.8-3.9,4.2l4.5,5.9h-2
			l-4.2-5.6h-4.2v5.6h-1.6v-14.5H2042.3z M2048.4,546.5c2.2,0,3.7-1.1,3.7-3l0,0c0-1.8-1.4-2.9-3.7-2.9h-4.5v5.9H2048.4z"/>
		<path fill="#FFFFFF" d="M2058.1,539.1h10.5v1.5h-8.9v5h7.9v1.5h-7.9v5.1h9v1.5h-10.6V539.1z"/>
		<path fill="#FFFFFF" d="M2078.4,539h1.5l6.6,14.6h-1.8l-1.7-3.8h-7.9l-1.7,3.8h-1.7L2078.4,539z M2082.5,548.3l-3.3-7.4l-3.3,7.4
			H2082.5z"/>
		<path fill="#FFFFFF" d="M2092,540.6h-4.9v-1.5h11.4v1.5h-4.9v13h-1.7v-13H2092z"/>
		<path fill="#FFFFFF" d="M2102.1,539.1h10.5v1.5h-8.9v5h7.9v1.5h-7.9v5.1h9v1.5h-10.6V539.1z"/>
		<path fill="#FFFFFF" d="M2115.8,551.6l1-1.2c1.5,1.4,3,2.1,5,2.1s3.2-1,3.2-2.5l0,0c0-1.3-0.7-2.1-3.8-2.8
			c-3.3-0.7-4.9-1.8-4.9-4.2l0,0c0-2.3,2-4,4.8-4c2.1,0,3.6,0.6,5.1,1.8l-1,1.3c-1.4-1.1-2.7-1.6-4.2-1.6c-1.9,0-3.1,1-3.1,2.3l0,0
			c0,1.4,0.7,2.1,3.9,2.8c3.2,0.7,4.7,1.9,4.7,4.1l0,0c0,2.5-2.1,4.1-5,4.1C2119.5,553.9,2117.6,553.1,2115.8,551.6z"/>
		<path fill="#FFFFFF" d="M1861.7,580.6l1-1.2c1.5,1.4,3,2.1,5,2.1s3.2-1,3.2-2.5l0,0c0-1.3-0.7-2.1-3.8-2.8
			c-3.3-0.7-4.9-1.8-4.9-4.2l0,0c0-2.3,2-4,4.8-4c2.1,0,3.6,0.6,5.1,1.8l-1,1.3c-1.4-1.1-2.7-1.6-4.2-1.6c-1.9,0-3.1,1-3.1,2.3l0,0
			c0,1.4,0.7,2.1,3.9,2.8c3.2,0.7,4.7,1.9,4.7,4.1l0,0c0,2.5-2.1,4.1-5,4.1C1865.3,583,1863.4,582.2,1861.7,580.6z"/>
		<path fill="#FFFFFF" d="M1881.7,568.1h1.5l6.6,14.6h-1.8l-1.7-3.8h-7.9l-1.7,3.8h-1.7L1881.7,568.1z M1885.8,577.4l-3.3-7.4
			l-3.3,7.4H1885.8z"/>
		<path fill="#FFFFFF" d="M1893.4,568.2h1.7l5.3,7.9l5.3-7.9h1.7v14.5h-1.6v-11.8l-5.3,7.8h-0.1l-5.3-7.8v11.8h-1.6L1893.4,568.2
			L1893.4,568.2z"/>
		<path fill="#FFFFFF" d="M1912.3,568.2h1.6v13h8.2v1.5h-9.8L1912.3,568.2L1912.3,568.2z"/>
		<path fill="#FFFFFF" d="M1932.8,568.2h6.3c1.8,0,3.2,0.5,4.1,1.5c0.7,0.7,1.1,1.7,1.1,2.9l0,0c0,2.4-1.7,3.8-3.9,4.2l4.5,5.9h-2
			l-4.2-5.6h-4.2v5.6h-1.6v-14.5H1932.8z M1939,575.6c2.2,0,3.7-1.1,3.7-3l0,0c0-1.8-1.4-2.9-3.7-2.9h-4.5v5.9H1939z"/>
		<path fill="#FFFFFF" d="M1948.7,568.2h10.5v1.5h-8.9v5h7.9v1.5h-7.9v5.1h9v1.5h-10.6V568.2z"/>
		<path fill="#FFFFFF" d="M1962.4,580.6l1-1.2c1.5,1.4,3,2.1,5,2.1s3.2-1,3.2-2.5l0,0c0-1.3-0.7-2.1-3.8-2.8
			c-3.3-0.7-4.9-1.8-4.9-4.2l0,0c0-2.3,2-4,4.8-4c2.1,0,3.6,0.6,5.1,1.8l-1,1.3c-1.4-1.1-2.7-1.6-4.2-1.6c-1.9,0-3.1,1-3.1,2.3l0,0
			c0,1.4,0.7,2.1,3.9,2.8c3.2,0.7,4.7,1.9,4.7,4.1l0,0c0,2.5-2.1,4.1-5,4.1C1966,583,1964.1,582.2,1962.4,580.6z"/>
		<path fill="#FFFFFF" d="M1977.4,568.2h5.4c3.3,0,5.4,1.7,5.4,4.6l0,0c0,3.1-2.6,4.8-5.7,4.8h-3.5v5.1h-1.6L1977.4,568.2
			L1977.4,568.2z M1982.7,576.1c2.4,0,4-1.3,4-3.2l0,0c0-2.1-1.6-3.2-3.9-3.2h-3.7v6.4H1982.7L1982.7,576.1z"/>
		<path fill="#FFFFFF" d="M1991.4,575.5L1991.4,575.5c0-4,3-7.6,7.4-7.6s7.4,3.5,7.4,7.5l0,0c0,4-3,7.5-7.4,7.5
			C1994.4,583,1991.4,579.5,1991.4,575.5z M2004.6,575.5L2004.6,575.5c0-3.3-2.4-6-5.7-6c-3.3,0-5.7,2.7-5.7,6l0,0
			c0,3.3,2.4,6,5.7,6S2004.6,578.8,2004.6,575.5z"/>
		<path fill="#FFFFFF" d="M2010.5,568.2h1.5l9.2,11.7v-11.7h1.6v14.5h-1.3l-9.4-11.9v11.9h-1.6L2010.5,568.2L2010.5,568.2z"/>
		<path fill="#FFFFFF" d="M2026.7,580.6l1-1.2c1.5,1.4,3,2.1,5,2.1s3.2-1,3.2-2.5l0,0c0-1.3-0.7-2.1-3.8-2.8
			c-3.3-0.7-4.9-1.8-4.9-4.2l0,0c0-2.3,2-4,4.8-4c2.1,0,3.6,0.6,5.1,1.8l-1,1.3c-1.4-1.1-2.7-1.6-4.2-1.6c-1.9,0-3.1,1-3.1,2.3l0,0
			c0,1.4,0.7,2.1,3.9,2.8c3.2,0.7,4.7,1.9,4.7,4.1l0,0c0,2.5-2.1,4.1-5,4.1C2030.4,583,2028.5,582.2,2026.7,580.6z"/>
		<path fill="#FFFFFF" d="M2041.8,568.2h10.5v1.5h-8.9v5h7.9v1.5h-7.9v5.1h9v1.5h-10.6V568.2z"/>
		<path fill="#FFFFFF" d="M2071.6,580.7c-1.3,1.4-2.9,2.3-4.8,2.3c-2.6,0-4.6-1.6-4.6-4.1l0,0c0-1.9,1.3-3.3,3.5-4.2
			c-1-1.2-1.5-2.1-1.5-3.2l0,0c0-1.9,1.5-3.4,3.8-3.4c2,0,3.5,1.5,3.5,3.3l0,0c0,1.8-1.3,3-3.4,3.8l3.3,3.4c0.6-0.9,1.2-2,1.7-3.2
			l1.3,0.6c-0.6,1.4-1.3,2.6-2.1,3.7l2.5,2.6l-1.2,1L2071.6,580.7z M2070.6,579.7l-3.9-4c-1.9,0.7-2.8,1.9-2.8,3.1l0,0
			c0,1.6,1.2,2.7,3,2.7C2068.3,581.6,2069.5,580.8,2070.6,579.7z M2070.2,571.4L2070.2,571.4c0-1.2-0.9-2.1-2.1-2.1
			c-1.3,0-2.2,0.9-2.2,2.1l0,0c0,0.9,0.4,1.5,1.5,2.7C2069.2,573.5,2070.2,572.6,2070.2,571.4z"/>
		<path fill="#FFFFFF" d="M2084.6,580.6l1-1.2c1.5,1.4,3,2.1,5,2.1s3.2-1,3.2-2.5l0,0c0-1.3-0.7-2.1-3.8-2.8
			c-3.3-0.7-4.9-1.8-4.9-4.2l0,0c0-2.3,2-4,4.8-4c2.1,0,3.6,0.6,5.1,1.8l-1,1.3c-1.4-1.1-2.7-1.6-4.2-1.6c-1.9,0-3.1,1-3.1,2.3l0,0
			c0,1.4,0.7,2.1,3.9,2.8c3.2,0.7,4.7,1.9,4.7,4.1l0,0c0,2.5-2.1,4.1-5,4.1C2088.2,583,2086.3,582.2,2084.6,580.6z"/>
		<path fill="#FFFFFF" d="M2099.6,568.2h10.5v1.5h-8.9v5h7.9v1.5h-7.9v5.1h9v1.5h-10.6V568.2z"/>
		<path fill="#FFFFFF" d="M2114.1,568.2h1.5l9.2,11.7v-11.7h1.6v14.5h-1.3l-9.4-11.9v11.9h-1.6L2114.1,568.2L2114.1,568.2z"/>
		<path fill="#FFFFFF" d="M2131.4,568.2h5c4.6,0,7.7,3.1,7.7,7.2l0,0c0,4.1-3.2,7.3-7.7,7.3h-5V568.2z M2133,569.7v11.5h3.4
			c3.7,0,6-2.5,6-5.7l0,0c0-3.2-2.3-5.8-6-5.8H2133z"/>
		<path fill="#FFFFFF" d="M2147,580.6l1-1.2c1.5,1.4,3,2.1,5,2.1s3.2-1,3.2-2.5l0,0c0-1.3-0.7-2.1-3.8-2.8c-3.3-0.7-4.9-1.8-4.9-4.2
			l0,0c0-2.3,2-4,4.8-4c2.1,0,3.6,0.6,5.1,1.8l-1,1.3c-1.4-1.1-2.7-1.6-4.2-1.6c-1.9,0-3.1,1-3.1,2.3l0,0c0,1.4,0.7,2.1,3.9,2.8
			c3.2,0.7,4.7,1.9,4.7,4.1l0,0c0,2.5-2.1,4.1-5,4.1C2150.7,583,2148.8,582.2,2147,580.6z"/>
		<path fill="#FFFFFF" d="M1862.8,597.3h1.6v14.5h-1.6V597.3z"/>
		<path fill="#FFFFFF" d="M1872.9,598.8h-4.9v-1.5h11.4v1.5h-4.9v13h-1.7L1872.9,598.8L1872.9,598.8z"/>
		<path fill="#FFFFFF" d="M1894.1,598.8h-4.9v-1.5h11.4v1.5h-4.9v13h-1.7L1894.1,598.8L1894.1,598.8z"/>
		<path fill="#FFFFFF" d="M1902.7,604.6L1902.7,604.6c0-4,3-7.6,7.4-7.6s7.4,3.5,7.4,7.5l0,0c0,4-3,7.5-7.4,7.5
			C1905.7,612.1,1902.7,608.6,1902.7,604.6z M1915.9,604.6L1915.9,604.6c0-3.3-2.4-6-5.7-6c-3.3,0-5.7,2.7-5.7,6l0,0
			c0,3.3,2.4,6,5.7,6S1915.9,607.9,1915.9,604.6z"/>
		<path fill="#FFFFFF" d="M1934.1,597.2h1.5l6.6,14.6h-1.8l-1.7-3.8h-7.9l-1.7,3.8h-1.7L1934.1,597.2z M1938.1,606.5l-3.3-7.4
			l-3.3,7.4H1938.1z"/>
		<path fill="#FFFFFF" d="M1945.8,597.3h5.4c3.3,0,5.4,1.7,5.4,4.6l0,0c0,3.1-2.6,4.8-5.7,4.8h-3.5v5.1h-1.6L1945.8,597.3
			L1945.8,597.3z M1951,605.2c2.4,0,4-1.3,4-3.2l0,0c0-2.1-1.6-3.2-3.9-3.2h-3.7v6.4L1951,605.2L1951,605.2z"/>
		<path fill="#FFFFFF" d="M1960.2,597.3h5.4c3.3,0,5.4,1.7,5.4,4.6l0,0c0,3.1-2.6,4.8-5.7,4.8h-3.5v5.1h-1.6L1960.2,597.3
			L1960.2,597.3z M1965.5,605.2c2.4,0,4-1.3,4-3.2l0,0c0-2.1-1.6-3.2-3.9-3.2h-3.7v6.4L1965.5,605.2L1965.5,605.2z"/>
	</g>
</g>
<circle fill="#00A9E0" cx="1258.1" cy="571.7" r="24.6"/>
<g>
	<path fill="#FFFFFF" d="M1238.4,572.6v-0.7l4.7-2.3v0.8l-3.9,1.9l3.9,1.9v0.8L1238.4,572.6z"/>
	<path fill="#FFFFFF" d="M1249.5,567.8h0.7l-4.6,9.3h-0.7L1249.5,567.8z"/>
	<path fill="#FFFFFF" d="M1259.4,574.1h-3.7l-0.2-0.6l4-4.8h0.7v4.7h1.1v0.7h-1.1v1.7h-0.8V574.1z M1259.4,573.4v-3.6l-2.9,3.6
		H1259.4z"/>
	<path fill="#FFFFFF" d="M1271.2,567.8h0.7l-4.6,9.3h-0.7L1271.2,567.8z"/>
	<path fill="#FFFFFF" d="M1273.8,574.1l3.8-1.9l-3.8-1.9v-0.8l4.7,2.3v0.7l-4.7,2.3V574.1z"/>
</g>
<g id="num1">
	<g>
		<rect x="2374.1" y="416.2" fill="#FFFFFF" width="17.6" height="24.8"/>
	</g>
	<path fill="#00A9E0" d="M2383.3,404.2c-12.9,0-23.3,10.4-23.3,23.3c0,12.9,10.4,23.3,23.3,23.3s23.3-10.4,23.3-23.3
		S2396.2,404.2,2383.3,404.2z M2386.7,435.7c0,0.5-0.2,0.7-0.7,0.7h-4.1c-0.5,0-0.7-0.2-0.7-0.7v-10h-3.3c-0.5,0-0.7-0.2-0.7-0.7
		v-4.2c0-0.5,0.2-0.7,0.7-0.7h8.2c0.5,0,0.6,0.2,0.6,0.6L2386.7,435.7L2386.7,435.7z"/>
</g>
</svg>
